#!OML:ASF X:\für Bonn\!DataBase\2005_08_10_Bjorn_Final\c3d\bjorn.ASF
:FULLY-SPECIFIED
:DEGREES
36
root 4.65194 24.5354 -9.5208 7.28745 0.838432 361.145
lowerback -6.83808 0.786527 2.61533
upperback 3.37038 0.717117 1.08965
thorax 7.39957 0.449278 -0.230417
lowerneck -0.187955 -2.5642 -1.11063
upperneck -14.0119 -3.53661 -0.114637
head -4.57295 -1.68506 0.293525
rclavicle -1.05356e-014 0
rhumerus -38.0078 5.05397 -91.3606
rradius 108.96
rwrist 0.502462
rhand -23.26 30.487
rfingers 7.12502
rthumb 3.19203 0.531123
lclavicle -1.05356e-014 0
lhumerus -26.5266 -24.3616 83.3313
lradius 95.5015
lwrist -5.28332
lhand -42.5515 -25.5189
lfingers 7.12502
lthumb -15.4264 3.88546
rfemur -9.67823 -4.60473 12.1931
rtibia 33.231
rfoot 21.2323 -0.348225
rtoes -26.4419
lfemur -14.5676 2.52521 -16.2575
ltibia 33.0993
lfoot 28.1618 -10.0466
ltoes -11.1429
37
root 4.65896 24.6554 -9.42306 7.19289 0.802466 361.083
lowerback -6.25072 0.803366 2.69039
upperback 3.56704 0.748047 1.11332
thorax 7.2711 0.468049 -0.249558
lowerneck -0.0187671 -2.63117 -0.892024
upperneck -14.2108 -3.6565 -0.374853
head -4.69025 -1.74139 0.17761
rclavicle 9.93923e-016 -1.27222e-014
rhumerus -37.173 5.12693 -91.466
rradius 106.919
rwrist 0.367711
rhand -23.0738 30.1158
rfingers 7.12502
rthumb 3.37184 0.162765
lclavicle 9.93923e-016 -1.27222e-014
lhumerus -25.8539 -24.4462 83.1905
lradius 94.0722
lwrist -5.15702
lhand -42.5836 -25.7005
lfingers 7.12502
lthumb -15.4573 3.7015
rfemur -10.121 -4.58321 12.3111
rtibia 33.615
rfoot 21.3476 0.150527
rtoes -25.4606
lfemur -14.733 2.41202 -16.3753
ltibia 33.0829
lfoot 27.6083 -9.97034
ltoes -10.0299
38
root 4.66636 24.7667 -9.32449 7.13358 0.713336 361.068
lowerback -5.68882 0.820991 2.7022
upperback 3.74662 0.785687 1.14094
thorax 7.13799 0.486758 -0.228595
lowerneck 0.0482103 -2.69332 -0.759638
upperneck -14.2421 -3.76407 -0.587619
head -4.72316 -1.79103 0.088515
rclavicle 2.32578e-014 1.51076e-014
rhumerus -36.3918 5.20384 -91.5679
rradius 104.925
rwrist 0.245784
rhand -22.8073 29.333
rfingers 7.12502
rthumb 3.62923 -0.615848
lclavicle 2.32578e-014 1.51076e-014
lhumerus -25.2546 -24.4398 83.1422
lradius 92.6866
lwrist -5.07261
lhand -42.4108 -26.0313
lfingers 7.12502
lthumb -15.2909 3.38346
rfemur -10.6161 -4.57944 12.3611
rtibia 33.9759
rfoot 21.4432 0.646066
rtoes -24.0883
lfemur -14.9382 2.24848 -16.5531
ltibia 33.0043
lfoot 27.0216 -9.76308
ltoes -9.48497
39
root 4.67409 24.8702 -9.22517 7.09403 0.548354 361.067
lowerback -5.15225 0.862828 2.73082
upperback 3.93734 0.856209 1.12247
thorax 7.0332 0.524047 -0.261515
lowerneck 0.0548406 -2.75199 -0.623647
upperneck -14.1946 -3.85017 -0.684924
head -4.71241 -1.8367 0.0350734
rclavicle 1.49089e-014 1.11319e-014
rhumerus -35.5807 5.26349 -91.7775
rradius 102.867
rwrist -0.19368
rhand -22.4367 28.6242
rfingers 7.12502
rthumb 3.98709 -1.31823
lclavicle 1.49089e-014 1.11319e-014
lhumerus -24.7357 -24.3845 83.1021
lradius 91.3485
lwrist -5.22296
lhand -42.1387 -26.4174
lfingers 7.12502
lthumb -15.0288 3.01716
rfemur -11.1949 -4.58766 12.381
rtibia 34.2997
rfoot 21.5572 1.20503
rtoes -22.6574
lfemur -15.1516 2.14385 -16.7552
ltibia 32.87
lfoot 26.5338 -9.4098
ltoes -9.57373
40
root 4.68215 24.9628 -9.12648 7.07669 0.35998 361.044
lowerback -4.62336 0.921641 2.76852
upperback 4.11666 0.947385 1.12826
thorax 6.92113 0.57117 -0.27278
lowerneck -0.0730161 -2.81865 -0.618351
upperneck -13.9483 -3.93394 -0.67103
head -4.59551 -1.88198 0.0374717
rclavicle -5.96354e-016 -1.35174e-014
rhumerus -34.8062 5.23403 -91.9081
rradius 100.749
rwrist -0.42802
rhand -22.1309 27.8957
rfingers 7.12502
rthumb 4.28233 -2.04096
lclavicle -5.96354e-016 -1.35174e-014
lhumerus -24.29 -24.2953 83.1782
lradius 89.9952
lwrist -5.68439
lhand -41.8029 -26.4488
lfingers 7.12502
lthumb -14.7053 3.00963
rfemur -11.8305 -4.54873 12.4205
rtibia 34.6072
rfoot 21.5553 1.58887
rtoes -21.705
lfemur -15.402 2.06365 -16.9295
ltibia 32.7181
lfoot 26.0632 -9.00736
ltoes -9.83864
41
root 4.69097 25.044 -9.03032 7.06919 0.193508 361.042
lowerback -4.05625 0.966323 2.81197
upperback 4.27311 1.02332 1.10624
thorax 6.76289 0.611363 -0.319975
lowerneck -0.25261 -2.87694 -0.643578
upperneck -13.5763 -3.99058 -0.537285
head -4.41905 -1.919 0.0817082
rclavicle -7.95139e-015 3.97569e-015
rhumerus -34.0708 5.14555 -92.0685
rradius 98.4097
rwrist -0.368508
rhand -22.0288 27.6949
rfingers 7.12502
rthumb 4.38094 -2.23983
lclavicle -7.95139e-015 3.97569e-015
lhumerus -23.9735 -24.2391 83.2293
lradius 88.6217
lwrist -6.20002
lhand -41.4787 -26.6305
lfingers 7.12502
lthumb -14.3929 2.85051
rfemur -12.4706 -4.57634 12.4402
rtibia 34.8789
rfoot 21.3476 1.83346
rtoes -21.7264
lfemur -15.6892 1.98912 -17.1168
ltibia 32.5548
lfoot 25.3959 -8.69538
ltoes -9.43793
42
root 4.69822 25.1036 -8.93706 7.0733 0.0314683 361.017
lowerback -3.47056 1.01578 2.88217
upperback 4.40606 1.10578 1.07929
thorax 6.57022 0.655747 -0.388349
lowerneck -0.385724 -2.92889 -0.769469
upperneck -13.182 -4.0284 -0.274344
head -4.23939 -1.94711 0.185524
rclavicle -8.54774e-015 3.97569e-015
rhumerus -33.3628 4.98441 -92.2335
rradius 95.9506
rwrist -0.32278
rhand -22.0919 28.0157
rfingers 7.12502
rthumb 4.32003 -1.92024
lclavicle -8.54774e-015 3.97569e-015
lhumerus -23.8249 -24.3027 83.3143
lradius 87.2137
lwrist -6.40964
lhand -41.3693 -27.4394
lfingers 7.12502
lthumb -14.2875 2.04911
rfemur -13.1402 -4.60948 12.4886
rtibia 35.1439
rfoot 20.8939 1.99015
rtoes -22.4557
lfemur -16.0424 1.91751 -17.2581
ltibia 32.4423
lfoot 24.6983 -8.30431
ltoes -8.87636
